<svg width="145" height="33" viewBox="0 0 145 33" fill="none" xmlns="http://www.w3.org/2000/svg"><defs>
<style>.cls-1{fill:#1929ba;}.cls-2{fill:#438fc9;}.cls-3{fill:#b51030;}</style>
</defs><title>logo vertical</title>
<path class="cls-1" d="M36.38,24.51H32.61V13.35h9.08v2.84H36.38Zm-.26-6.41H41v2.84H36.12Z" transform="translate(-0.27 -8.28)"/>
<path class="cls-1" d="M47.22,24.67a5.78,5.78,0,0,1-2.62-.58,4.61,4.61,0,0,1-1.8-1.61,4.54,4.54,0,0,1,0-4.68,4.58,4.58,0,0,1,1.8-1.6,5.77,5.77,0,0,1,2.62-.57,5.85,5.85,0,0,1,2.63.57,4.42,4.42,0,0,1,1.79,1.6,4.54,4.54,0,0,1,0,4.68,4.44,4.44,0,0,1-1.79,1.61A5.85,5.85,0,0,1,47.22,24.67Zm0-2.81a1.3,1.3,0,0,0,1.23-.77,2.26,2.26,0,0,0,.19-.95,2.2,2.2,0,0,0-.19-.95,1.33,1.33,0,0,0-.51-.56,1.39,1.39,0,0,0-.72-.2,1.34,1.34,0,0,0-.72.2,1.33,1.33,0,0,0-.51.56,2.06,2.06,0,0,0-.19.95,2.12,2.12,0,0,0,.19.95,1.39,1.39,0,0,0,.51.58A1.34,1.34,0,0,0,47.22,21.86Z" transform="translate(-0.27 -8.28)"/>
<path class="cls-1" d="M53.42,24.51V12.68H57V24.51Z" transform="translate(-0.27 -8.28)"/>
<path class="cls-1" d="M58.62,24.51V12.68h3.6V24.51Z" transform="translate(-0.27 -8.28)"/>
<path class="cls-1" d="M68.42,24.67a5.81,5.81,0,0,1-2.62-.58A4.51,4.51,0,0,1,64,22.48a4.48,4.48,0,0,1,0-4.68,4.49,4.49,0,0,1,1.79-1.6,6.33,6.33,0,0,1,5.25,0,4.45,4.45,0,0,1,1.8,1.6,4.6,4.6,0,0,1,0,4.68,4.47,4.47,0,0,1-1.8,1.61A5.82,5.82,0,0,1,68.42,24.67Zm0-2.81a1.34,1.34,0,0,0,.72-.19,1.39,1.39,0,0,0,.51-.58,2.12,2.12,0,0,0,.19-.95,2.06,2.06,0,0,0-.19-.95,1.33,1.33,0,0,0-.51-.56,1.38,1.38,0,0,0-1.43,0,1.21,1.21,0,0,0-.51.56,2.06,2.06,0,0,0-.2.95,2.12,2.12,0,0,0,.2.95,1.26,1.26,0,0,0,.51.58A1.33,1.33,0,0,0,68.42,21.86Z" transform="translate(-0.27 -8.28)"/>
<path class="cls-1" d="M76.52,24.51l-3-8.72h3.42l2.29,7.08H77.56L80,15.79H83l2.29,7.08H83.73l2.37-7.08h3.16l-3,8.72h-3.5L80.89,18.9h1L80,24.51Z" transform="translate(-0.27 -8.28)"/>
<path class="cls-1" d="M100.63,24.76a7.13,7.13,0,0,1-2.48-.42,5.84,5.84,0,0,1-2-1.2,5.63,5.63,0,0,1-1.3-1.85,6.28,6.28,0,0,1,0-4.72,5.63,5.63,0,0,1,1.3-1.85,5.84,5.84,0,0,1,2-1.2,7.49,7.49,0,0,1,5.39.15,5.41,5.41,0,0,1,2.1,1.66l-2.38,2.12a3.8,3.8,0,0,0-1.09-1,2.66,2.66,0,0,0-1.35-.34,2.83,2.83,0,0,0-1.07.19,2.22,2.22,0,0,0-.82.56,2.44,2.44,0,0,0-.53.88,3.28,3.28,0,0,0-.19,1.16,3.23,3.23,0,0,0,.19,1.15,2.4,2.4,0,0,0,.53.89,2.35,2.35,0,0,0,.82.56,2.83,2.83,0,0,0,1.07.19,2.76,2.76,0,0,0,1.35-.34,3.8,3.8,0,0,0,1.09-1l2.38,2.12a5.68,5.68,0,0,1-2.1,1.65A6.9,6.9,0,0,1,100.63,24.76Z" transform="translate(-0.27 -8.28)"/>
<path class="cls-1" d="M109.41,24.67a3.81,3.81,0,0,1-1.78-.37,2.61,2.61,0,0,1-1.09-1,2.63,2.63,0,0,1-.36-1.36,2.36,2.36,0,0,1,.43-1.44,2.57,2.57,0,0,1,1.31-.89,7.1,7.1,0,0,1,2.24-.3H112v1.74h-1.24a1.52,1.52,0,0,0-.84.18.63.63,0,0,0-.26.55.61.61,0,0,0,.23.5.93.93,0,0,0,.63.2,1.28,1.28,0,0,0,.68-.2,1.17,1.17,0,0,0,.45-.63l.46,1.07a2.31,2.31,0,0,1-.87,1.45A3.06,3.06,0,0,1,109.41,24.67Zm2.48-.16V23l-.26-.41V19.61a1.22,1.22,0,0,0-.39-1,2,2,0,0,0-1.27-.33,4.14,4.14,0,0,0-1.19.18,3.35,3.35,0,0,0-1,.5l-1.15-2.37a6.05,6.05,0,0,1,1.84-.74,8.88,8.88,0,0,1,2.08-.25,5.41,5.41,0,0,1,3.49,1,3.89,3.89,0,0,1,1.23,3.19v4.69Z" transform="translate(-0.27 -8.28)"/>
<path class="cls-1" d="M116.8,24.51V15.79h3.42v2.63l-.55-.75a2.93,2.93,0,0,1,1.27-1.53,4.15,4.15,0,0,1,2.11-.51v3.19l-.43-.05-.37,0a2,2,0,0,0-1.33.43,1.75,1.75,0,0,0-.52,1.45v3.88Z" transform="translate(-0.27 -8.28)"/><path class="cls-1" d="M127.72,24a4.2,4.2,0,0,1-2.06-.52,4,4,0,0,1-2.14-3.69,4.14,4.14,0,0,1,.59-2.23,4.07,4.07,0,0,1,1.55-1.45,4.31,4.31,0,0,1,2.06-.51,3.54,3.54,0,0,1,1.85.44,2.62,2.62,0,0,1,1.08,1.38,7,7,0,0,1,.35,2.37,6.89,6.89,0,0,1-.35,2.37,2.68,2.68,0,0,1-1.08,1.39A3.45,3.45,0,0,1,127.72,24Zm.7,3.73a10.37,10.37,0,0,1-2.42-.27,6,6,0,0,1-2-.81l1.21-2.46a3.75,3.75,0,0,0,1.3.63,5.11,5.11,0,0,0,1.49.23,2.2,2.2,0,0,0,1.6-.47,1.78,1.78,0,0,0,.47-1.34v-.74l.16-2.71,0-2.71V15.79h3.43v7a4.71,4.71,0,0,1-1.41,3.76A5.7,5.7,0,0,1,128.42,27.76Zm.25-6.54a1.59,1.59,0,0,0,.77-.17,1.39,1.39,0,0,0,.53-.49,1.51,1.51,0,0,0,.19-.74,1.45,1.45,0,0,0-.19-.74,1.29,1.29,0,0,0-.53-.48,1.71,1.71,0,0,0-.77-.17,1.69,1.69,0,0,0-.75.17,1.35,1.35,0,0,0-.55.48,1.36,1.36,0,0,0-.2.74,1.41,1.41,0,0,0,.2.74,1.45,1.45,0,0,0,.55.49A1.56,1.56,0,0,0,128.67,21.22Z" transform="translate(-0.27 -8.28)"/><path class="cls-1" d="M139.93,24.67a5.78,5.78,0,0,1-2.62-.58,4.61,4.61,0,0,1-1.8-1.61,4.54,4.54,0,0,1,0-4.68,4.58,4.58,0,0,1,1.8-1.6,6.33,6.33,0,0,1,5.25,0,4.42,4.42,0,0,1,1.79,1.6,4.54,4.54,0,0,1,0,4.68,4.44,4.44,0,0,1-1.79,1.61A5.82,5.82,0,0,1,139.93,24.67Zm0-2.81a1.36,1.36,0,0,0,.72-.19,1.39,1.39,0,0,0,.51-.58,2.12,2.12,0,0,0,.19-.95,2.06,2.06,0,0,0-.19-.95,1.33,1.33,0,0,0-.51-.56,1.4,1.4,0,0,0-1.44,0,1.33,1.33,0,0,0-.51.56,2.06,2.06,0,0,0-.19.95,2.12,2.12,0,0,0,.19.95,1.39,1.39,0,0,0,.51.58A1.36,1.36,0,0,0,139.93,21.86Z" transform="translate(-0.27 -8.28)"/><path class="cls-1" d="M28.86,22.76v-.11l.42,0a.21.21,0,0,0,.17-.08.23.23,0,0,0,.05-.18l-.08-.56a.22.22,0,0,0-.23-.2l-.39,0,0-.35-1.41-.68.11,2.27Zm-1.22-.93a.11.11,0,0,1,.08,0l1.08-.05.39,0h0a.11.11,0,0,1,.1.09l.07.56a.19.19,0,0,1,0,.08.11.11,0,0,1-.07,0l-.43,0-1.05.07a.12.12,0,0,1-.11-.09l-.07-.59A.24.24,0,0,1,27.64,21.83Z" transform="translate(-0.27 -8.28)"/><polygon class="cls-1" points="23.77 9.5 26.13 10.54 26.4 14.39 21.69 14.94 26.56 14.57 26.31 10.47 23.77 9.5"/><path class="cls-1" d="M14.37,21.72c-.72.05-1.22,1.35-1.12,2.91s.77,2.79,1.48,2.75,1.21-1.35,1.11-2.91S15.08,21.68,14.37,21.72Zm.3,4.74c-.48,0-.93-.8-1-1.85s.26-1.94.75-2,.92.8,1,1.85S15.15,26.42,14.67,26.46Z" transform="translate(-0.27 -8.28)"/><path class="cls-1" d="M13.81,24.56c0,.82.37,1.48.73,1.56A2.09,2.09,0,0,1,14,24.64c-.05-.89.24-1.62.65-1.65h.09a.49.49,0,0,0-.25-.08C14.05,22.94,13.76,23.68,13.81,24.56Z" transform="translate(-0.27 -8.28)"/><path class="cls-1" d="M29.22,22.85,27.3,23l-.2-4.62S23.23,16.46,23,16.44l-.94-3h.41v-.3c-.26-1.76-2.31-2.42-2.31-2.42L20,10.46a16.09,16.09,0,0,0-6.48-1.31,17.06,17.06,0,0,0-3,.26,5.18,5.18,0,0,1,2.33,1.21A6.62,6.62,0,0,0,9.28,10v-.3c-.48.13-.94.27-1.39.44V14l2.58-.51a.19.19,0,0,1,.24.19v4.42a.18.18,0,0,1-.16.18l-2.49.19,2.18-.29a.14.14,0,0,0,.13-.15V13.87a.12.12,0,0,0-.15-.12l-2.33.43v6.49l5,.66-5-.18v2.1a16.25,16.25,0,0,0,5.07,1c0-1,.18-2.83,1.41-2.75,1.57.1,1.63,3.77,1.63,3.77l3.11.45,3.59-.43-.13-.74,2-.14-1.82.23.13.63,3.58-.43,0-.69.1.68,3.14-.38V23.22Zm-7.5-9.43.84,3-3.21-.24-5,.4-.47-3.22Zm-9.43,3.13a.39.39,0,0,1-.39-.38l0-2.31a.38.38,0,0,1,.35-.39l1.26-.14.32,3.22Zm1.24,3.94a4.23,4.23,0,0,1,3-.49A3.67,3.67,0,0,1,19,21.29l-2,.14C16.74,20.23,14.21,20.08,13.53,20.49Zm6.67,2.9-1.87.2a.22.22,0,0,1-.23-.18L18,22.67a.2.2,0,0,1,.18-.24L20,22.26a.22.22,0,0,1,.23.17l.12.71A.21.21,0,0,1,20.2,23.39Zm-5.65-6.53,4.86-.47,3.19.31-3.05-.2L16.21,17l4.27,1.7Zm7.11,6.56-.8-4.75,3.05-1.09,2.8,1L27,23Z" transform="translate(-0.27 -8.28)"/><path class="cls-2" d="M17.16,13.45l4.44.07.77,2.71L19.56,16C20,14,17.16,13.45,17.16,13.45Z" transform="translate(-0.27 -8.28)"/><polygon class="cls-1" points="26.33 17 22.54 17.52 22.47 17.13 18.84 17.6 15.74 17.15 15.96 18.1 18.86 18.56 29.14 17.22 29.4 16.86 29.4 16.23 26.28 16.63 26.33 17"/><path class="cls-2" d="M5.66,22.78C3.1,21.3,1.5,19.12,1.5,16.69c0-2.17,1.27-4.2,3.57-5.73A13.21,13.21,0,0,1,7.53,9.71l.36-.13a16.39,16.39,0,0,1,2.59-.68,18.29,18.29,0,0,1,3.08-.26,17.58,17.58,0,0,1,5.08.74,17.48,17.48,0,0,0-6.16-1.1A17.78,17.78,0,0,0,7.53,9a15.11,15.11,0,0,0-2.26.85l-.55.28C2,11.57.27,13.78.27,16.25c0,2.64,2,5,5,6.43l.44.2.62.25-.41-.21Z" transform="translate(-0.27 -8.28)"/><path class="cls-1" d="M7,10.52V21.59a6.21,6.21,0,0,1-4.06-3.31l-.06-.12.06.12a5.33,5.33,0,0,0,3.69,2.63V10.69C3.81,12.07,2,14.25,2,16.69a6.43,6.43,0,0,0,3.17,5.18,12.25,12.25,0,0,0,2.44,1.28L7.54,10.26Z" transform="translate(-0.27 -8.28)"/><path class="cls-2" d="M1.33,20.5s3.53,4.18,11.56,5a3.09,3.09,0,0,0,.5,1.45C4.37,25.13,1.33,20.5,1.33,20.5Z" transform="translate(-0.27 -8.28)"/><path class="cls-3" d="M23.69,18.26a1.58,1.58,0,0,0-1.33,1.79c.13.86,2,2.54,2,2.54s1.28-2.14,1.15-3A1.57,1.57,0,0,0,23.69,18.26Zm.4,2.71a1.26,1.26,0,1,1,1.06-1.43A1.25,1.25,0,0,1,24.09,21Z" transform="translate(-0.27 -8.28)"/></svg>