<svg id="Capa_1" data-name="Capa 1" xmlns="http://www.w3.org/2000/svg" viewBox="0 0 199.74 154.68"><defs><style>.cls-1{fill:#1929ba;}.cls-2{fill:#438fc9;}.cls-3{fill:#b51030;}</style></defs><title>Logo cuadrado chepe</title><path class="cls-1" d="M12.34,149H5.8v-19.4H21.57v4.94H12.34Zm-.44-11.14h8.53v4.94H11.9Z" transform="translate(-1.4)"/><path class="cls-1" d="M31.19,149.3a9.94,9.94,0,0,1-4.56-1,7.89,7.89,0,0,1-3.12-2.79,7.84,7.84,0,0,1,0-8.14,7.79,7.79,0,0,1,3.12-2.78,10.07,10.07,0,0,1,4.56-1,10.14,10.14,0,0,1,4.57,1,7.66,7.66,0,0,1,3.12,2.78,8,8,0,0,1,0,8.14,7.76,7.76,0,0,1-3.12,2.79A10,10,0,0,1,31.19,149.3Zm0-4.88a2.37,2.37,0,0,0,1.24-.33,2.33,2.33,0,0,0,.89-1,3.73,3.73,0,0,0,.33-1.65,3.62,3.62,0,0,0-.33-1.65,2.34,2.34,0,0,0-2.13-1.32,2.41,2.41,0,0,0-1.25.34,2.36,2.36,0,0,0-.89,1,3.62,3.62,0,0,0-.33,1.65,3.73,3.73,0,0,0,.33,1.65,2.33,2.33,0,0,0,.89,1A2.41,2.41,0,0,0,31.19,144.42Z" transform="translate(-1.4)"/><path class="cls-1" d="M42,149V128.46h6.26V149Z" transform="translate(-1.4)"/><path class="cls-1" d="M51,149V128.46h6.26V149Z" transform="translate(-1.4)"/><path class="cls-1" d="M68,149.3a9.94,9.94,0,0,1-4.56-1,7.79,7.79,0,0,1-3.11-2.79,7.84,7.84,0,0,1,0-8.14,7.7,7.7,0,0,1,3.11-2.78,11,11,0,0,1,9.13,0,7.66,7.66,0,0,1,3.12,2.78,8,8,0,0,1,0,8.14,7.76,7.76,0,0,1-3.12,2.79A10,10,0,0,1,68,149.3Zm0-4.88a2.27,2.27,0,0,0,2.14-1.34,3.73,3.73,0,0,0,.33-1.65,3.62,3.62,0,0,0-.33-1.65,2.37,2.37,0,0,0-4.27,0,3.62,3.62,0,0,0-.33,1.65,3.73,3.73,0,0,0,.33,1.65,2.37,2.37,0,0,0,.88,1A2.41,2.41,0,0,0,68,144.42Z" transform="translate(-1.4)"/><path class="cls-1" d="M82.12,149l-5.27-15.16h5.93l4,12.31H83.92l4.18-12.31h5.32l4,12.31H94.64l4.13-12.31h5.49L99,149H92.9l-3.19-9.75h1.83L88.22,149Z" transform="translate(-1.4)"/><path class="cls-1" d="M124,149.47a12.31,12.31,0,0,1-4.31-.74,10.25,10.25,0,0,1-3.44-2.09,9.63,9.63,0,0,1-2.26-3.22,10.91,10.91,0,0,1,0-8.2,9.59,9.59,0,0,1,2.26-3.21,10.09,10.09,0,0,1,3.44-2.09,12.31,12.31,0,0,1,4.31-.74,12,12,0,0,1,5,1,9.3,9.3,0,0,1,3.65,2.88l-4.13,3.69a6.77,6.77,0,0,0-1.9-1.68,4.58,4.58,0,0,0-2.34-.6,4.85,4.85,0,0,0-1.86.34,3.79,3.79,0,0,0-1.42,1,4.36,4.36,0,0,0-.93,1.53,6.29,6.29,0,0,0,0,4,4.41,4.41,0,0,0,.93,1.54,3.79,3.79,0,0,0,1.42,1,5,5,0,0,0,1.86.33,4.67,4.67,0,0,0,2.34-.59,6.77,6.77,0,0,0,1.9-1.68l4.13,3.69a9.63,9.63,0,0,1-3.65,2.86A11.86,11.86,0,0,1,124,149.47Z" transform="translate(-1.4)"/><path class="cls-1" d="M139.29,149.3a6.73,6.73,0,0,1-3.11-.64,4.42,4.42,0,0,1-2.52-4.07,4.14,4.14,0,0,1,.75-2.5,4.57,4.57,0,0,1,2.28-1.55,12.31,12.31,0,0,1,3.9-.52h3.16v3h-2.16a2.55,2.55,0,0,0-1.46.32,1.17,1.17,0,0,0,0,1.82,1.55,1.55,0,0,0,1.09.35,2.07,2.07,0,0,0,1.18-.35,2,2,0,0,0,.79-1.09l.8,1.86a4,4,0,0,1-1.52,2.52A5.32,5.32,0,0,1,139.29,149.3Zm4.29-.28v-2.69l-.44-.72v-5.09a2.1,2.1,0,0,0-.68-1.69,3.35,3.35,0,0,0-2.2-.59,7.2,7.2,0,0,0-2.08.32,5.91,5.91,0,0,0-1.8.87l-2-4.12a10.64,10.64,0,0,1,3.19-1.28,15.93,15.93,0,0,1,3.63-.44,9.38,9.38,0,0,1,6.05,1.74c1.43,1.17,2.15,3,2.15,5.54V149Z" transform="translate(-1.4)"/><path class="cls-1" d="M152.12,149V133.86h5.95v4.58l-1-1.31a5.14,5.14,0,0,1,2.22-2.66,7.19,7.19,0,0,1,3.66-.88v5.54l-.74-.08c-.21,0-.43,0-.65,0a3.53,3.53,0,0,0-2.31.73,3.12,3.12,0,0,0-.9,2.54V149Z" transform="translate(-1.4)"/><path class="cls-1" d="M171.1,148.19a7.4,7.4,0,0,1-3.58-.9,7.31,7.31,0,0,1,0-12.82,7.5,7.5,0,0,1,3.58-.88,6.15,6.15,0,0,1,3.23.77,4.64,4.64,0,0,1,1.87,2.4,14.18,14.18,0,0,1,0,8.23,4.7,4.7,0,0,1-1.87,2.41A6,6,0,0,1,171.1,148.19Zm1.22,6.49a17.83,17.83,0,0,1-4.22-.48,10.37,10.37,0,0,1-3.38-1.41l2.11-4.27a6.53,6.53,0,0,0,2.26,1.1,9.13,9.13,0,0,0,2.59.4,3.84,3.84,0,0,0,2.77-.82,3.1,3.1,0,0,0,.83-2.34v-1.27l.28-4.72,0-4.71v-2.3h6V146c0,2.94-.82,5.12-2.44,6.54A10,10,0,0,1,172.32,154.68Zm.44-11.37a2.86,2.86,0,0,0,1.33-.3,2.31,2.31,0,0,0,.92-.86,2.44,2.44,0,0,0,.33-1.28,2.41,2.41,0,0,0-.33-1.28,2.24,2.24,0,0,0-.92-.83,2.86,2.86,0,0,0-1.33-.3,2.91,2.91,0,0,0-1.32.3,2.29,2.29,0,0,0-.94.83,2.33,2.33,0,0,0-.34,1.28,2.31,2.31,0,0,0,1.28,2.14A2.91,2.91,0,0,0,172.76,143.31Z" transform="translate(-1.4)"/><path class="cls-1" d="M192.32,149.3a9.93,9.93,0,0,1-4.55-1,7.82,7.82,0,0,1-3.12-2.79,7.84,7.84,0,0,1,0-8.14,7.73,7.73,0,0,1,3.12-2.78,10.05,10.05,0,0,1,4.55-1,10.18,10.18,0,0,1,4.58,1,7.57,7.57,0,0,1,3.11,2.78,7.89,7.89,0,0,1,0,8.14,7.66,7.66,0,0,1-3.11,2.79A10.06,10.06,0,0,1,192.32,149.3Zm0-4.88a2.38,2.38,0,0,0,1.25-.33,2.33,2.33,0,0,0,.89-1,3.73,3.73,0,0,0,.33-1.65,3.62,3.62,0,0,0-.33-1.65,2.36,2.36,0,0,0-.89-1,2.45,2.45,0,0,0-2.49,0,2.36,2.36,0,0,0-.89,1,3.62,3.62,0,0,0-.33,1.65,3.73,3.73,0,0,0,.33,1.65,2.33,2.33,0,0,0,.89,1A2.37,2.37,0,0,0,192.32,144.42Z" transform="translate(-1.4)"/><path class="cls-1" d="M189,94.93l-.05-.7,2.8-.18a1.56,1.56,0,0,0,1.08-.55,1.54,1.54,0,0,0,.33-1.15l-.48-3.69a1.53,1.53,0,0,0-1.57-1.32l-2.55.12-.14-2.26-9.29-4.47.72,14.85Zm-8-6.06a.66.66,0,0,1,.47-.23l7.12-.33,2.55-.12h0a.67.67,0,0,1,.66.58l.48,3.69a.65.65,0,0,1-.15.5.62.62,0,0,1-.47.24l-2.8.18-6.87.44a.66.66,0,0,1-.7-.58l-.48-3.86A.69.69,0,0,1,181,88.87Z" transform="translate(-1.4)"/><polygon class="cls-1" points="155.9 62.3 171.38 69.12 173.16 94.39 142.26 97.96 174.19 95.58 172.57 68.69 155.9 62.3"/><path class="cls-1" d="M93.88,88.15c-4.69.3-8,8.85-7.3,19.08s5,18.29,9.69,18,8-8.84,7.29-19.08S98.57,87.85,93.88,88.15Zm2,31c-3.16.2-6.09-5.23-6.53-12.13s1.75-12.67,4.92-12.88,6.08,5.23,6.53,12.14S99,119,95.88,119.19Z" transform="translate(-1.4)"/><path class="cls-1" d="M90.25,106.78c.3,5.35,2.37,9.66,4.78,10.18-2-1.34-3.5-5.14-3.75-9.71-.33-5.8,1.57-10.62,4.23-10.77a2.18,2.18,0,0,1,.62.06A2.64,2.64,0,0,0,94.48,96C91.82,96.16,89.93,101,90.25,106.78Z" transform="translate(-1.4)"/><path class="cls-1" d="M191.33,95.56l-12.65.89-1.26-30.26S152,53.63,150.69,53.52l-6.17-19.91h2.7V31.66c-1.73-11.58-15.15-15.91-15.15-15.91a15.32,15.32,0,0,0-1-1.49A106.14,106.14,0,0,0,88.62,5.71,113.9,113.9,0,0,0,69,7.4a33.18,33.18,0,0,1,15.27,7.92c-8.44-5.74-23.69-4.11-23.69-4.11v-2c-3.15.82-6.2,1.78-9.13,2.86V37.25l16.94-3.38a1.3,1.3,0,0,1,1.56,1.28v29a1.15,1.15,0,0,1-1,1.14L52.51,66.56l14.3-1.89a1,1,0,0,0,.87-1v-27a.85.85,0,0,0-1-.83L51.41,38.69V81.23l32.68,4.34L51.41,84.4V98.16a106.71,106.71,0,0,0,33.22,6.31c0-6.53,1.18-18.57,9.29-18.06,10.31.65,10.66,24.76,10.66,24.76l20.42,3,23.57-2.84-.88-4.87,13.12-.89L148.87,107l.82,4.13,23.49-2.83-.2-4.5.66,4.44,20.61-2.47V98Zm-49.25-61.9L147.6,53.2l-21-1.63-32.8,2.66L90.68,33.07ZM80.27,54.23a2.57,2.57,0,0,1-2.57-2.52L77.43,36.6A2.56,2.56,0,0,1,79.7,34L88,33.07l2.1,21.16Zm8.12,25.85c.9-.6,8.33-5.22,19.44-3.25,12.93,2.29,16.67,8.46,16.67,8.46l-13,.92C109.43,78.33,92.86,77.39,88.39,80.08Zm43.73,19-12.25,1.31a1.39,1.39,0,0,1-1.51-1.15l-.81-4.87a1.38,1.38,0,0,1,1.23-1.61L131,91.67a1.38,1.38,0,0,1,1.49,1.14l.8,4.66A1.37,1.37,0,0,1,132.12,99.08ZM95.06,56.23l31.87-3.09,20.94,2.06-20-1.3-21.91,3L134,68Zm46.66,43.05L136.47,68.1l20-7.1,18.36,6.66,1.67,29.15Z" transform="translate(-1.4)"/><path class="cls-2" d="M112.22,33.89l29.09.48,5.08,17.72L128,50.58C130.79,37.46,112.22,33.89,112.22,33.89Z" transform="translate(-1.4)"/><polygon class="cls-1" points="172.72 111.47 147.83 114.94 147.36 112.34 123.58 115.43 103.24 112.46 104.68 118.72 123.67 121.74 191.11 112.95 192.85 110.57 192.85 106.42 172.36 109.09 172.72 111.47"/><path class="cls-2" d="M36.76,95.06C20,85.38,9.49,71.07,9.49,55.13c0-14.24,8.32-27.58,23.44-37.55A84.19,84.19,0,0,1,49.05,9.36c.78-.3,1.57-.59,2.36-.87a104.1,104.1,0,0,1,17-4.42A116.9,116.9,0,0,1,88.62,2.33a113.52,113.52,0,0,1,33.31,4.89A113.82,113.82,0,0,0,81.48,0,116.47,116.47,0,0,0,49,4.49,97,97,0,0,0,34.2,10.11c-1.22.58-2.42,1.19-3.58,1.82C12.78,21.52,1.4,36,1.4,52.27c0,17.28,12.91,32.62,32.76,42.14.93.45,1.88.89,2.84,1.31,1.34.58,2.7,1.14,4.09,1.67-.91-.45-1.82-.93-2.7-1.41C37.84,95.68,37.3,95.37,36.76,95.06Z" transform="translate(-1.4)"/><path class="cls-1" d="M45.24,14.64V87.29S27,83.61,18.59,65.57c-.25-.51-.36-.81-.36-.81l.36.81c1.47,3,7.67,13.3,24.21,17.27v-67c-18.18,9-29.93,23.3-29.93,39.33,0,12.67,7.38,24.73,20.8,34a79.23,79.23,0,0,0,16,8.42L49.08,13Q47.12,13.77,45.24,14.64Z" transform="translate(-1.4)"/><path class="cls-2" d="M8.4,80.13s23.13,27.38,75.79,32.65a20.22,20.22,0,0,0,3.27,9.5C28.34,110.48,8.4,80.13,8.4,80.13Z" transform="translate(-1.4)"/><path class="cls-3" d="M155,65.44a10.33,10.33,0,0,0-8.72,11.71c.82,5.64,12.87,16.67,12.87,16.67s8.38-14,7.56-19.65A10.33,10.33,0,0,0,155,65.44Zm2.6,17.78a8.3,8.3,0,1,1,7-9.41A8.3,8.3,0,0,1,157.63,83.22Z" transform="translate(-1.4)"/></svg>